<svg viewBox="0 0 600 600" xmlns="http://www.w3.org/2000/svg" style="background:#fff">
  <g fill="none" stroke="#0A0A0A" stroke-width="6" stroke-linecap="round" stroke-linejoin="round">
    <!-- bug body -->
    <ellipse cx="300" cy="320" rx="100" ry="70"/>
    <line x1="300" y1="255" x2="300" y2="385"/>
    <line x1="220" y1="290" x2="200" y2="270"/>
    <line x1="220" y1="320" x2="195" y2="320"/>
    <line x1="220" y1="350" x2="200" y2="370"/>
    <line x1="380" y1="290" x2="400" y2="270"/>
    <line x1="380" y1="320" x2="405" y2="320"/>
    <line x1="380" y1="350" x2="400" y2="370"/>
    <!-- antennae -->
    <path d="M285 255 Q275 220 260 200"/>
    <path d="M315 255 Q325 220 340 200"/>
    <circle cx="258" cy="198" r="6" fill="#0A0A0A"/>
    <circle cx="342" cy="198" r="6" fill="#0A0A0A"/>
    <!-- eyes -->
    <circle cx="278" cy="305" r="5" fill="#fff"/>
    <circle cx="322" cy="305" r="5" fill="#fff"/>
    <!-- xiaohei magnifier hunter -->
    <ellipse cx="475" cy="450" rx="38" ry="44" fill="#0A0A0A" stroke="none"/>
    <circle cx="467" cy="448" r="5" fill="#fff" stroke="none"/>
    <circle cx="487" cy="448" r="5" fill="#fff" stroke="none"/>
    <line x1="463" y1="492" x2="458" y2="525"/>
    <line x1="487" y1="492" x2="492" y2="525"/>
    <!-- magnifier -->
    <circle cx="425" cy="395" r="34"/>
    <line x1="403" y1="417" x2="380" y2="440"/>
    <line x1="442" y1="440" x2="455" y2="455"/>
  </g>
  <text x="100" y="135" font-family="Caveat, Comic Sans MS, cursive" font-size="34" fill="#F97316" font-style="italic">cause 1, 2, 3</text>
  <path d="M180 145 Q200 165 220 180" stroke="#F97316" stroke-width="4" fill="none"/>
  <polygon points="215,177 225,185 222,175" fill="#F97316"/>
</svg>
