<svg viewBox="0 0 600 600" xmlns="http://www.w3.org/2000/svg" style="background:#fff">
  <g fill="none" stroke="#0A0A0A" stroke-width="6" stroke-linecap="round" stroke-linejoin="round">
    <!-- brain shape (sketchy) -->
    <path d="M220 280 Q200 220 250 195 Q260 165 305 175 Q345 160 370 195 Q415 210 405 260 Q420 300 395 330 Q400 370 360 380 Q335 410 290 395 Q245 410 230 370 Q200 350 220 310 Q210 295 220 280 Z"/>
    <!-- brain folds -->
    <path d="M260 230 Q280 245 270 270"/>
    <path d="M310 215 Q325 240 315 265"/>
    <path d="M355 235 Q370 255 360 280"/>
    <path d="M270 320 Q290 330 285 350"/>
    <path d="M320 320 Q340 335 332 360"/>
    <!-- xiaohei reading book under brain -->
    <ellipse cx="300" cy="490" rx="42" ry="50" fill="#0A0A0A" stroke="none"/>
    <circle cx="290" cy="485" r="5" fill="#fff" stroke="none"/>
    <circle cx="312" cy="485" r="5" fill="#fff" stroke="none"/>
    <line x1="285" y1="540" x2="280" y2="580"/>
    <line x1="315" y1="540" x2="320" y2="580"/>
    <!-- book -->
    <path d="M250 540 L350 540 L355 555 L300 565 L245 555 Z"/>
    <line x1="300" y1="540" x2="300" y2="563"/>
  </g>
  <text x="420" y="220" font-family="Caveat, Comic Sans MS, cursive" font-size="30" fill="#F97316" font-style="italic">ELI5</text>
  <text x="420" y="280" font-family="Caveat, Comic Sans MS, cursive" font-size="30" fill="#F97316" font-style="italic">+ EXPERT</text>
  <path d="M410 235 Q395 260 395 290" stroke="#F97316" stroke-width="4" fill="none"/>
</svg>
